<svg width="13"
    height="24"
    viewBox="0 0 13 24"
    fill="none"
    xmlns="http://www.w3.org/2000/svg">
    <path
        d="M11.1699 24C11.0383 24.0008 10.9078 23.9756 10.786 23.9258C10.6641 23.876 10.5533 23.8027 10.4599 23.71L2.28989 15.54C1.82426 15.0756 1.45483 14.5238 1.20277 13.9164C0.950701 13.3089 0.820953 12.6577 0.820953 12C0.820953 11.3424 0.950701 10.6912 1.20277 10.0837C1.45483 9.47626 1.82426 8.92451 2.28989 8.46005L10.4599 0.290063C10.5531 0.196825 10.6638 0.122864 10.7856 0.0724035C10.9075 0.0219432 11.038 -0.00402832 11.1699 -0.00402832C11.3018 -0.00402832 11.4323 0.0219432 11.5541 0.0724035C11.676 0.122864 11.7867 0.196825 11.8799 0.290063C11.9731 0.383301 12.0471 0.493991 12.0976 0.615813C12.148 0.737635 12.174 0.868203 12.174 1.00006C12.174 1.13192 12.148 1.26249 12.0976 1.38431C12.0471 1.50613 11.9731 1.61682 11.8799 1.71006L3.70989 9.88005C3.14809 10.4426 2.83253 11.205 2.83253 12C2.83253 12.7951 3.14809 13.5575 3.70989 14.12L11.8799 22.29C11.9736 22.383 12.048 22.4936 12.0988 22.6155C12.1496 22.7373 12.1757 22.868 12.1757 23C12.1757 23.132 12.1496 23.2628 12.0988 23.3846C12.048 23.5065 11.9736 23.6171 11.8799 23.71C11.7865 23.8027 11.6756 23.876 11.5538 23.9258C11.432 23.9756 11.3015 24.0008 11.1699 24Z"
        fill="#374957" />
</svg>
